Coordinates
version=1
nRows=30
nColumns=38
inDegrees=no

Units are S.I. units (second, meters, Newtons, ...)
If the header above contains a line with 'inDegrees', this indicates whether rotational values are in degrees (yes) or radians (no).

endheader
time	pelvis_tilt	pelvis_list	pelvis_rotation	pelvis_tx	pelvis_ty	pelvis_tz	hip_flexion_r	hip_adduction_r	hip_rotation_r	knee_angle_r	ankle_angle_r	subtalar_angle_r	mtp_angle_r	hip_flexion_l	hip_adduction_l	hip_rotation_l	knee_angle_l	ankle_angle_l	subtalar_angle_l	mtp_angle_l	lumbar_extension	lumbar_bending	lumbar_rotation	arm_flex_r	arm_add_r	arm_rot_r	elbow_flex_r	pro_sup_r	wrist_flex_r	wrist_dev_r	arm_flex_l	arm_add_l	arm_rot_l	elbow_flex_l	pro_sup_l	wrist_flex_l	wrist_dev_l
35	2.98126	1.42555	-1.30304	0.623174	-0.0596358	0.9479	-0.0958179	0.008529	-0.129385	0.269357	-0.382516	0	0	-0.201735	-0.0471706	0.0435987	0.0795687	-0.388526	0	0	-0.240396	0.0829455	-0.261139	0.411902	-0.286692	1.13423	0.473971	0.939679	0	0	-0.0126406	-0.395162	0.487953	0.797312	1.17559	0	0
35.01	2.97696	1.42785	-1.29939	0.62332	-0.0603783	0.947688	-0.088122	0.00763971	-0.130429	0.277702	-0.380136	0	0	-0.194352	-0.0470052	0.0412147	0.0875889	-0.384899	0	0	-0.240181	0.0838202	-0.260422	0.413631	-0.287082	1.13672	0.470252	0.933731	0	0	-0.0117739	-0.395483	0.484151	0.795746	1.18557	0	0
35.02	2.9727	1.43085	-1.29543	0.623406	-0.0611657	0.947404	-0.0793319	0.00631203	-0.13225	0.286712	-0.377767	0	0	-0.185354	-0.0467621	0.0375693	0.0972265	-0.380955	0	0	-0.239488	0.084615	-0.260228	0.415484	-0.287649	1.13968	0.46661	0.92781	0	0	-0.0115753	-0.395268	0.477617	0.794706	1.19574	0	0
35.03	2.96791	1.43493	-1.29086	0.623554	-0.0619501	0.946993	-0.0689724	0.00488843	-0.13427	0.29665	-0.374587	0	0	-0.174589	-0.0463125	0.0345884	0.108227	-0.375659	0	0	-0.237815	0.0850732	-0.260549	0.41749	-0.288041	1.14387	0.462802	0.920678	0	0	-0.0127622	-0.394322	0.466862	0.794299	1.20674	0	0
35.04	2.96416	1.43908	-1.28723	0.623701	-0.0628216	0.946552	-0.0583156	0.00341727	-0.136192	0.306765	-0.371427	0	0	-0.163643	-0.0455646	0.032635	0.118912	-0.370943	0	0	-0.236357	0.0854432	-0.261176	0.419704	-0.288381	1.14818	0.458978	0.913265	0	0	-0.0143096	-0.393135	0.454589	0.794163	1.21633	0	0
35.05	2.95635	1.44311	-1.28014	0.623833	-0.0638466	0.94613	-0.0467141	0.00180474	-0.137399	0.317957	-0.368448	0	0	-0.151868	-0.0453592	0.0288101	0.131059	-0.365606	0	0	-0.235581	0.0864358	-0.261657	0.422855	-0.288651	1.15354	0.454817	0.903649	0	0	-0.016858	-0.390919	0.438753	0.794147	1.22752	0	0
35.06	2.94635	1.4469	-1.27081	0.623952	-0.0649325	0.94574	-0.0344311	0.000274372	-0.139026	0.330799	-0.365853	0	0	-0.140066	-0.0455922	0.0249056	0.143355	-0.360991	0	0	-0.235374	0.0878128	-0.262199	0.426195	-0.289049	1.15892	0.45065	0.893447	0	0	-0.0194483	-0.388712	0.422499	0.794654	1.23692	0	0
35.07	2.93095	1.45472	-1.25591	0.624133	-0.0658584	0.945052	-0.0183282	-0.00158176	-0.139816	0.343722	-0.360501	0	0	-0.123086	-0.0452034	0.0211176	0.157707	-0.354693	0	0	-0.23279	0.0871187	-0.258621	0.400471	-0.276876	1.02152	0.437402	1.04353	0	0	-0.0207622	-0.385812	0.404556	0.796491	1.25202	0	0
35.08	2.92239	1.45852	-1.24766	0.624269	-0.0670684	0.944348	-0.00572758	-0.00321812	-0.141425	0.358216	-0.351676	0	0	-0.108861	-0.0458233	0.0131963	0.175781	-0.343087	0	0	-0.231532	0.0894404	-0.271639	0.455814	-0.293749	1.27237	0.448722	0.756727	0	0	-0.0384383	-0.377452	0.352633	0.800918	1.28711	0	0
35.09	2.91302	1.46304	-1.23893	0.62449	-0.0683152	0.943754	0.00715614	-0.00484928	-0.141493	0.370961	-0.348342	0	0	-0.0957149	-0.0457552	0.00986004	0.189201	-0.338338	0	0	-0.23121	0.089872	-0.271929	0.458427	-0.294343	1.27504	0.445439	0.745625	0	0	-0.0399234	-0.377011	0.341036	0.802194	1.28934	0	0
35.1	2.90374	1.467	-1.23097	0.624764	-0.0696864	0.943202	0.0199093	-0.00625424	-0.140434	0.3841	-0.344888	0	0	-0.0831769	-0.0456852	0.0059544	0.202566	-0.333608	0	0	-0.232076	0.0902842	-0.271452	0.461461	-0.294703	1.27881	0.441624	0.735913	0	0	-0.0407782	-0.377199	0.331185	0.80353	1.29021	0	0
35.11	2.895	1.4715	-1.22345	0.625086	-0.0710516	0.942585	0.0331831	-0.00773353	-0.139389	0.39718	-0.341498	0	0	-0.0699248	-0.0454041	0.00198117	0.216391	-0.328581	0	0	-0.232625	0.0903366	-0.271007	0.464191	-0.294838	1.28233	0.43764	0.726607	0	0	-0.0413112	-0.377796	0.322525	0.804989	1.28893	0	0
35.12	2.88751	1.47641	-1.21662	0.625388	-0.0724542	0.941858	0.046516	-0.00970962	-0.13881	0.409552	-0.338474	0	0	-0.0558595	-0.0448878	-0.00144662	0.230928	-0.323419	0	0	-0.232945	0.0901114	-0.27104	0.466793	-0.29511	1.28589	0.434169	0.718208	0	0	-0.0416622	-0.378727	0.314995	0.806211	1.28719	0	0
35.13	2.87582	1.48082	-1.20525	0.625639	-0.0739749	0.941094	0.0595038	-0.011241	-0.138379	0.421655	-0.335829	0	0	-0.0417338	-0.044876	-0.00427082	0.245774	-0.318715	0	0	-0.234045	0.0905725	-0.271192	0.469792	-0.295893	1.2897	0.431571	0.710966	0	0	-0.0414543	-0.379903	0.308884	0.807006	1.28473	0	0
35.14	2.85765	1.48583	-1.18784	0.625923	-0.0756009	0.940191	0.0741141	-0.012761	-0.13753	0.435552	-0.332422	0	0	-0.0255809	-0.0453216	-0.00903518	0.26298	-0.312962	0	0	-0.234697	0.0912613	-0.27121	0.473453	-0.296488	1.29528	0.428813	0.703014	0	0	-0.0412117	-0.381012	0.302856	0.807703	1.27969	0	0
35.15	2.83192	1.49134	-1.16272	0.626237	-0.0772504	0.939178	0.0899985	-0.0142412	-0.137089	0.450674	-0.328846	0	0	-0.0080912	-0.0460056	-0.0126877	0.28134	-0.306433	0	0	-0.234761	0.092074	-0.271191	0.476869	-0.29692	1.30093	0.425688	0.695224	0	0	-0.0406441	-0.382139	0.297408	0.808177	1.27279	0	0
35.16	2.79859	1.49736	-1.12964	0.626533	-0.0789653	0.938043	0.106771	-0.0158168	-0.136787	0.465785	-0.325399	0	0	0.010945	-0.0468814	-0.0161098	0.301031	-0.299772	0	0	-0.234508	0.0929654	-0.271401	0.480147	-0.297525	1.30569	0.423024	0.687539	0	0	-0.0397333	-0.383045	0.291749	0.808338	1.2654	0	0
35.17	2.75835	1.50363	-1.08953	0.626817	-0.0807424	0.936755	0.12395	-0.0172082	-0.136175	0.48032	-0.321754	0	0	0.0309481	-0.04785	-0.0196411	0.321648	-0.293347	0	0	-0.234288	0.09373	-0.271702	0.483353	-0.298298	1.30978	0.420892	0.680322	0	0	-0.0387778	-0.383976	0.28618	0.808309	1.25966	0	0
35.18	2.71159	1.50933	-1.04317	0.627121	-0.082597	0.935414	0.140975	-0.0180203	-0.134732	0.494964	-0.318153	0	0	0.05047	-0.0490295	-0.0229626	0.342309	-0.286998	0	0	-0.234985	0.0945361	-0.271817	0.486884	-0.299023	1.31321	0.418984	0.673626	0	0	-0.0378754	-0.385184	0.280839	0.808223	1.25502	0	0
35.19	2.66682	1.51367	-0.999597	0.627491	-0.0846186	0.934136	0.156637	-0.0180332	-0.13139	0.509389	-0.314652	0	0	0.0682566	-0.050364	-0.0262243	0.362506	-0.280856	0	0	-0.237805	0.0953535	-0.271299	0.491245	-0.299377	1.31695	0.416778	0.6681	0	0	-0.03645	-0.386599	0.275387	0.808432	1.24958	0	0
35.2	2.62942	1.5172	-0.964388	0.62797	-0.0867807	0.932899	0.171128	-0.018358	-0.126091	0.522797	-0.311458	0	0	0.0843565	-0.0514902	-0.0296383	0.38169	-0.274678	0	0	-0.242335	0.0958084	-0.270028	0.496289	-0.299479	1.32069	0.414625	0.663487	0	0	-0.034733	-0.388294	0.269846	0.809152	1.24399	0	0
35.21	2.57178	1.52185	-0.907883	0.628342	-0.0888576	0.931522	0.187118	-0.0194263	-0.122846	0.537161	-0.307533	0	0	0.102174	-0.0524053	-0.0322377	0.401373	-0.26781	0	0	-0.245346	0.096207	-0.269681	0.50057	-0.299735	1.32371	0.412617	0.659361	0	0	-0.0332278	-0.389591	0.264134	0.809504	1.23917	0	0
35.22	2.51473	1.52559	-0.850919	0.628578	-0.0909644	0.930217	0.201856	-0.0208741	-0.121697	0.551427	-0.304617	0	0	0.118429	-0.0529639	-0.0324524	0.419174	-0.26273	0	0	-0.249588	0.097067	-0.269825	0.504713	-0.300109	1.3255	0.410626	0.656302	0	0	-0.0306701	-0.390756	0.259693	0.809009	1.23544	0	0
35.23	2.45801	1.52846	-0.794248	0.62883	-0.0931542	0.928927	0.215775	-0.0224559	-0.121247	0.565711	-0.302204	0	0	0.133739	-0.0537431	-0.0322728	0.436356	-0.258372	0	0	-0.255184	0.0979701	-0.269574	0.508924	-0.300321	1.32676	0.408402	0.653139	0	0	-0.0275449	-0.39237	0.255949	0.80873	1.23199	0	0
35.24	2.36099	1.53234	-0.697556	0.629186	-0.0953436	0.927364	0.232041	-0.0239045	-0.12068	0.580732	-0.298523	0	0	0.152219	-0.0551793	-0.0344374	0.456432	-0.252962	0	0	-0.259284	0.098529	-0.269353	0.512901	-0.300207	1.32879	0.406237	0.649713	0	0	-0.0254461	-0.393979	0.250785	0.809442	1.2283	0	0
35.25	2.27617	1.53527	-0.612822	0.62948	-0.0976335	0.925827	0.246722	-0.0257176	-0.120799	0.594368	-0.295673	0	0	0.16884	-0.0559923	-0.0349811	0.474796	-0.249832	0	0	-0.264906	0.0991394	-0.269368	0.51724	-0.300389	1.33101	0.404827	0.647675	0	0	-0.0228706	-0.395495	0.245635	0.810122	1.2255	0	0
35.26	1.99488	1.51391	-0.344948	0.630209	-0.0975562	0.920934	0.258712	0.00185611	-0.117331	0.61302	-0.284467	0	0	0.284653	-0.210068	-0.370394	0.762576	-0.276325	0	0	-0.26289	0.124927	-0.265589	0.526274	-0.305218	1.34492	0.412827	0.654438	0	0	-0.0450054	-0.393552	0.224851	0.828634	1.21477	0	0
35.27	1.92898	1.51524	-0.279953	0.630482	-0.0999561	0.919245	0.274676	0.000521556	-0.117291	0.630186	-0.280793	0	0	0.299201	-0.211991	-0.36851	0.776062	-0.275325	0	0	-0.269521	0.125773	-0.264657	0.529628	-0.304019	1.33904	0.409248	0.660627	0	0	-0.0418363	-0.395585	0.222489	0.829276	1.20835	0	0
35.28	1.89231	1.51632	-0.244315	0.630828	-0.102428	0.917608	0.288825	-0.000521066	-0.116754	0.646662	-0.282164	0	0	0.311367	-0.213559	-0.367605	0.788495	-0.274985	0	0	-0.278653	0.125839	-0.263816	0.534252	-0.303099	1.33673	0.406959	0.661681	0	0	-0.0392098	-0.39714	0.216445	0.830671	1.20746	0	0
35.29	1.84421	1.51853	-0.19738	0.63124	-0.104852	0.915791	0.303848	-0.00402079	-0.116093	0.663071	-0.279219	0	0	0.32399	-0.214224	-0.367877	0.800934	-0.273958	0	0	-0.28655	0.124582	-0.263412	0.539749	-0.301953	1.34127	0.404483	0.652366	0	0	-0.0363472	-0.399499	0.213051	0.831263	1.20213	0	0
